<?xml version="1.0" encoding="UTF-8"?>
<svg xmlns="http://www.w3.org/2000/svg" width="251.6835pt" height="251.6835pt" viewBox="0 0 251.68349 251.68351">
  <path
     d="M 40.49409,161.14644 34.50191,143.03706 C 65.07222,137.86519 87.16206,126.29487 92.48628,108.57612 72.8105,97.23628 60.67378,74.71284 66.55659,35.25581 68.40425,36.84956 81.68941,47.91987 84.39253,47.91987 V 24.74409 c 12.48047,10.51172 22.6836,13.66016 53.48828,21.02735 11.94532,2.85937 18.54688,6.41796 25.67188,19.26562 26.16015,-7.87891 44.53906,-12.96484 61.04297,-15.4375 C 201.76753,20.08784 166.03706,1.0605 125.83784,1.0605 56.92769,1.0605 1.0605,56.91987 1.0605,125.83784 c 0,68.91016 55.86719,124.78516 124.77734,124.78516 28.08204,0 54,-9.28516 74.85938,-24.94141 -0.0117,-3.0039 -0.10156,-7.0625 -0.10156,-10.98047 -73.4336,8.6875 -132.14063,-17.85156 -154.67969,-37.15625 l -5.42188,-16.39843"
     style="fill:#000000;fill-opacity:1;fill-rule:nonzero;stroke:#ffffff;stroke-width:2.12100005;stroke-linecap:butt;stroke-linejoin:miter;stroke-miterlimit:10;stroke-opacity:1" />
  <path
     d="M 126.45894,54.68159 C 114.49019,53.25972 104.54878,50.35737 97.67769,46.35737 v 7.64453 c 16.08984,3.95313 29.71094,9.82422 41.72656,19.90625 l 14.61328,-5.04296 C 145.00581,57.81831 134.52534,55.77534 126.45894,54.68159"
     style="fill:#000000;fill-opacity:1;fill-rule:nonzero;stroke:none" />
  <path
     d="M 126.45894,54.68159 C 114.49019,53.25972 104.54878,50.35737 97.67769,46.35737 v 7.64453 c 16.08984,3.95313 29.71094,9.82422 41.72656,19.90625 l 14.61328,-5.04296 C 145.00581,57.81831 134.52534,55.77534 126.45894,54.68159 Z m 0,0"
     style="fill:none;stroke:#ffffff;stroke-width:2.12100005;stroke-linecap:butt;stroke-linejoin:miter;stroke-miterlimit:10;stroke-opacity:1" />
  <path
     d="m 102.50191,131.15034 v -10.6289 l 21.07031,10.6289 z M 231.59175,59.6269 c -21.50781,4.63672 -52.23047,9.58204 -87.82812,22.67188 v 15.51953 c -3.98829,-11.83594 -10.89844,-18.61719 -21.80079,-23.66797 -15.95312,-10.90625 -34.5664,-9.11328 -46,-18.75 2.82032,36.5586 20.73829,48.80078 47.29688,63.95703 -12.04688,-1.78906 -14.32813,-2.93359 -20.44531,-5.85547 -11.70703,25.52735 -35.89063,34.57032 -53.70703,36.17188 l 7.70312,22.33203 15.16016,9.04688 27.92187,-10.11329 -21.10937,13.82422 c 20.89062,9.44141 57.0039,24.46485 120.29297,18.34766 -1.33594,-10.09766 -1.33594,-10.09766 -8.51172,-23.39453 13.60937,9.42187 18.58203,25.0625 20.0664,37.64062 24.58985,-22.78515 39.99219,-55.35156 39.99219,-91.52343 0,-24.32032 -6.98437,-47.01563 -19.03125,-66.20704"
     style="fill:#000000;fill-opacity:1;fill-rule:nonzero;stroke:none" />
  <path
     d="m 102.50191,131.15034 v -10.6289 l 21.07031,10.6289 z M 231.59175,59.6269 c -21.50781,4.63672 -52.23047,9.58204 -87.82812,22.67188 v 15.51953 c -3.98829,-11.83594 -10.89844,-18.61719 -21.80079,-23.66797 -15.95312,-10.90625 -34.5664,-9.11328 -46,-18.75 2.82032,36.5586 20.73829,48.80078 47.29688,63.95703 -12.04688,-1.78906 -14.32813,-2.93359 -20.44531,-5.85547 -11.70703,25.52735 -35.89063,34.57032 -53.70703,36.17188 l 7.70312,22.33203 15.16016,9.04688 27.92187,-10.11329 -21.10937,13.82422 c 20.89062,9.44141 57.0039,24.46485 120.29297,18.34766 -1.33594,-10.09766 -1.33594,-10.09766 -8.51172,-23.39453 13.60937,9.42187 18.58203,25.0625 20.0664,37.64062 24.58985,-22.78515 39.99219,-55.35156 39.99219,-91.52343 0,-24.32032 -6.98437,-47.01563 -19.03125,-66.20704 z m 0,0"
     style="fill:none;stroke:#ffffff;stroke-width:2.12100005;stroke-linecap:butt;stroke-linejoin:miter;stroke-miterlimit:10;stroke-opacity:1" />
</svg>
