<?xml version="1.0" encoding="UTF-8"?>
<svg xmlns="http://www.w3.org/2000/svg" viewBox="0 0 499.99998 500.00002" height="500pt" width="500pt">
  <path
     style="fill:#d91c97;fill-opacity:1;fill-rule:nonzero;stroke:none"
     d="m 65.427585,197.00025 c 2.26953,1.82422 3.29297,4.4375 3.0664,7.85156 -0.23046,2.27344 -0.57421,4.21094 -1.02343,5.80079 5.46093,-0.91016 10.80078,-0.91016 16.03515,0 5.917973,1.13671 8.875003,4.21093 8.875003,9.21093 -0.46484,13.19532 -0.34375,26.26953 0.33594,39.23828 0,7.28516 -2.72656,8.98047 -8.187503,5.11719 -3.1875,-2.26953 -6.25781,-4.4375 -9.20703,-6.48047 -3.41406,-2.73047 -7.40234,-5.46093 -11.94141,-8.1914 5.90625,2.95703 10.6836,4.77734 14.32422,5.46093 0.91016,0 1.82031,0.11329 2.73047,0.33985 2.50391,0 3.75,-1.02344 3.75,-3.07031 0.45703,-11.82813 0.22656,-22.74219 -0.67969,-32.75391 -0.45312,-4.32031 -2.5,-6.48438 -6.13672,-6.48438 -3.64843,-0.22656 -7.625,0.33985 -11.9414,1.70313 -0.91406,2.05078 -1.82422,4.09766 -2.73438,6.14453 1.13282,-0.22266 2.26953,-0.45312 3.41016,-0.68359 3.18359,-1.13672 5.46094,-1.2461 6.82812,-0.33985 1.35938,0.91016 1.35938,2.27344 0,4.09375 -3.41406,4.55078 -6.94531,9.21094 -10.58203,13.99219 7.28125,-1.14062 12.62891,-0.22656 16.04297,2.73047 1.8125,1.58984 2.26953,2.95703 1.35938,4.08984 -0.67969,0.6836 -2.16016,1.02344 -4.42969,1.02344 -4.78125,-0.44922 -8.87109,0.80078 -12.28516,3.75391 2.5,-2.04688 4.76953,-3.86328 6.82422,-5.45703 -3.875,-2.73047 -8.87109,-1.47657 -15.01953,3.75 -0.67969,0.46093 -1.35937,0.91015 -2.04687,1.36718 -2.26953,-2.04687 -2.95703,-4.32031 -2.04688,-6.82422 5.46094,-4.77734 10.1211,-10.23828 13.98828,-16.375 -2.5,0.67969 -4.89062,2.16016 -7.16015,4.42969 -2.04688,1.82813 -3.64453,1.70703 -4.78125,-0.33984 -0.91016,-1.58985 -0.67969,-3.29297 0.6875,-5.11719 1.58203,-2.26953 2.72656,-4.31641 3.41406,-6.14062 -3.41406,1.14062 -6.71484,0.68359 -9.89453,-1.36719 3.40234,-1.36328 6.70703,-2.60938 9.89453,-3.75391 1.81641,-0.44922 2.94922,-1.70312 3.40625,-3.75 1.13281,-3.86719 1.82031,-6.25781 2.04687,-7.16797 0.6875,-3.86328 0.45313,-6.25 -0.67968,-7.16015 0.91015,0 2.15625,0.45312 3.75781,1.35937 m -18.08984,26.27735 c 0,1.58984 -0.33594,4.89062 -1.02344,9.89062 -0.45703,4.32422 -0.45703,11.03516 0,20.13281 0.22265,2.50391 0,4.4375 -0.67969,5.80078 0,0.23047 -0.23437,0.45704 -0.67969,0.67969 -0.91015,0.6836 -1.36718,0.80078 -1.36718,0.34375 -0.91016,0.45703 -2.04688,-1.25 -3.41407,-5.11719 -0.67968,-2.04687 -0.91015,-5.57421 -0.67968,-10.57421 0.67968,-13.19532 2.49218,-23.66016 5.46093,-31.39454 1.35938,3.64454 2.15625,7.05079 2.38282,10.23829"
     id="path3975" />
  <path
     style="fill:none;stroke:#ffffff;stroke-width:1.62199998;stroke-linecap:butt;stroke-linejoin:round;stroke-miterlimit:10;stroke-opacity:1"
     d="m 65.427585,197.00025 c 2.26953,1.82422 3.29297,4.4375 3.0664,7.85156 -0.23046,2.27344 -0.57421,4.21094 -1.02343,5.80079 5.46093,-0.91016 10.80078,-0.91016 16.03515,0 5.917973,1.13671 8.875003,4.21093 8.875003,9.21093 -0.46484,13.19532 -0.34375,26.26953 0.33594,39.23828 0,7.28516 -2.72656,8.98047 -8.187503,5.11719 -3.1875,-2.26953 -6.25781,-4.4375 -9.20703,-6.48047 -3.41406,-2.73047 -7.40234,-5.46093 -11.94141,-8.1914 5.90625,2.95703 10.6836,4.77734 14.32422,5.46093 0.91016,0 1.82031,0.11329 2.73047,0.33985 2.50391,0 3.75,-1.02344 3.75,-3.07031 0.45703,-11.82813 0.22656,-22.74219 -0.67969,-32.75391 -0.45312,-4.32031 -2.5,-6.48438 -6.13672,-6.48438 -3.64843,-0.22656 -7.625,0.33985 -11.9414,1.70313 -0.91406,2.05078 -1.82422,4.09766 -2.73438,6.14453 1.13282,-0.22266 2.26953,-0.45312 3.41016,-0.68359 3.18359,-1.13672 5.46094,-1.2461 6.82812,-0.33985 1.35938,0.91016 1.35938,2.27344 0,4.09375 -3.41406,4.55078 -6.94531,9.21094 -10.58203,13.99219 7.28125,-1.14062 12.62891,-0.22656 16.04297,2.73047 1.8125,1.58984 2.26953,2.95703 1.35938,4.08984 -0.67969,0.6836 -2.16016,1.02344 -4.42969,1.02344 -4.78125,-0.44922 -8.87109,0.80078 -12.28516,3.75391 2.5,-2.04688 4.76953,-3.86328 6.82422,-5.45703 -3.875,-2.73047 -8.87109,-1.47657 -15.01953,3.75 -0.67969,0.46093 -1.35937,0.91015 -2.04687,1.36718 -2.26953,-2.04687 -2.95703,-4.32031 -2.04688,-6.82422 5.46094,-4.77734 10.1211,-10.23828 13.98828,-16.375 -2.5,0.67969 -4.89062,2.16016 -7.16015,4.42969 -2.04688,1.82813 -3.64453,1.70703 -4.78125,-0.33984 -0.91016,-1.58985 -0.67969,-3.29297 0.6875,-5.11719 1.58203,-2.26953 2.72656,-4.31641 3.41406,-6.14062 -3.41406,1.14062 -6.71484,0.68359 -9.89453,-1.36719 3.40234,-1.36328 6.70703,-2.60938 9.89453,-3.75391 1.81641,-0.44922 2.94922,-1.70312 3.40625,-3.75 1.13281,-3.86719 1.82031,-6.25781 2.04687,-7.16797 0.6875,-3.86328 0.45313,-6.25 -0.67968,-7.16015 0.91015,0 2.15625,0.45312 3.75781,1.35937 z m -18.08984,26.27735 c 0,1.58984 -0.33594,4.89062 -1.02344,9.89062 -0.45703,4.32422 -0.45703,11.03516 0,20.13281 0.22265,2.50391 0,4.4375 -0.67969,5.80078 0,0.23047 -0.23437,0.45704 -0.67969,0.67969 -0.91015,0.6836 -1.36718,0.80078 -1.36718,0.34375 -0.91016,0.45703 -2.04688,-1.25 -3.41407,-5.11719 -0.67968,-2.04687 -0.91015,-5.57421 -0.67968,-10.57421 0.67968,-13.19532 2.49218,-23.66016 5.46093,-31.39454 1.35938,3.64454 2.15625,7.05079 2.38282,10.23829 z m 0,0"
     id="path3977" />
  <path
     style="fill:#d91c97;fill-opacity:1;fill-rule:nonzero;stroke:none"
     d="m 427.73618,230.43775 c 11.60547,2.73047 21.49219,7.96485 29.6875,15.69531 2.5,2.27735 3.52735,4.67188 3.07031,7.16797 -0.67968,1.59375 -2.39062,1.70703 -5.11328,0.34375 -7.05859,-4.32031 -12.74609,-6.82812 -17.07031,-7.51172 2.28125,-0.22265 4.54688,-0.44921 6.82813,-0.67968 -7.05079,-5.67969 -14.21875,-10.46094 -21.4961,-14.33203 0.90625,-0.6836 2.27344,-0.90625 4.09375,-0.6836 m -3.0664,-32.7539 c 0,1.14062 -1.02735,4.4375 -3.07422,9.89843 4.32031,-3.87109 6.48437,-6.71093 6.48437,-8.53515 l -1.36719,-1.02344 c 5.00391,-0.90625 8.53125,-0.22266 10.57813,2.04687 -0.68359,1.14454 -1.82422,2.39063 -3.40625,3.75782 -1.59766,0.91015 -3.07813,1.93359 -4.4375,3.07031 -2.73438,2.04687 -5.92578,4.21094 -9.5625,6.48047 1.59375,-0.45313 2.84766,-0.79297 3.75781,-1.02344 2.04688,-0.45312 3.75781,-0.56641 5.11719,-0.33984 2.26953,0.67968 3.41406,1.48047 3.41406,2.38672 0,1.36328 -1.47656,2.62109 -4.4375,3.7539 -2.04687,0.91016 -6.02734,3.07031 -11.9414,6.48438 4.54687,-0.91016 8.98437,-1.82032 13.30859,-2.73047 3.18359,-0.44922 5.33984,-0.6836 6.48437,-0.6836 4.54688,-0.45312 8.1836,1.14454 10.91797,4.78125 -1.36718,0.91016 -3.1914,1.36329 -5.45703,1.36329 -9.33203,-1.36329 -18.66015,-0.45313 -27.98047,2.72656 -1.36718,3.1914 -2.73437,6.26172 -4.09375,9.21484 2.4961,-0.22265 4.77344,-0.79687 6.82032,-1.70703 0.91406,-0.22266 1.71093,-0.33984 2.38671,-0.33984 5.00391,-1.58985 8.875,-1.82032 11.60157,-0.6836 3.1875,1.36719 3.63672,3.30078 1.36718,5.80078 -1.14453,1.14063 -2.27734,2.16407 -3.41406,3.07032 2.73438,2.95703 2.26953,4.66406 -1.36719,5.11718 -3.86718,0.6836 -7.73046,2.04688 -11.59765,4.09766 0.45312,1.13672 0.6875,2.27344 0.6875,3.40625 0,3.19141 1.8125,4.89844 5.46094,5.12109 2.72265,0 5.5625,-0.10937 8.52734,-0.33984 3.85937,-0.45312 7.04297,-0.10937 9.55469,1.02344 1.80859,0.91406 2.83593,2.16406 3.07031,3.7539 -7.73828,0.45313 -16.03516,2.95313 -24.91016,7.50391 3.17969,-2.04297 6.13672,-3.98437 8.875,-5.79687 -2.28125,-0.23438 -4.55859,-0.46094 -6.82812,-0.6836 -6.14063,-0.91406 -9.32813,-3.86328 -9.55078,-8.875 -0.23438,-2.95312 -1.02735,-5.45703 -2.39453,-7.5039 4.54687,-1.58594 8.87109,-4.09375 12.96484,-7.50782 2.05078,-1.58984 3.41406,-3.41015 4.09375,-5.45703 -1.82031,0.22656 -3.98047,0.91016 -6.48047,2.04688 -3.41406,1.36718 -6.70703,1.2539 -9.89453,-0.33985 -6.14063,11.14453 -14.21484,15.8086 -24.22266,13.98828 9.55469,-4.54687 16.49219,-11.60546 20.81641,-21.15625 -2.73438,1.14063 -5.23828,2.27735 -7.50781,3.41407 -1.82813,0.68359 -3.30078,0.57031 -4.4375,-0.34375 -1.59766,-1.13672 -2.50782,-2.60938 -2.73047,-4.4336 4.3125,0.23047 10.23828,-1.92968 17.74219,-6.48047 1.59375,-1.58984 2.39453,-2.95312 2.39453,-4.09765 -3.41407,1.59375 -6.15235,0.68359 -8.19532,-2.73047 5.6836,-2.04688 9.09766,-3.63672 10.23829,-4.77734 0.44921,-0.44922 1.25,-3.17969 2.38281,-8.1875 -2.26953,1.82031 -4.31641,4.09765 -6.13672,6.82812 -1.36719,2.04297 -2.73047,2.84375 -4.09375,2.38281 -1.14453,-0.44922 -1.70313,-1.92968 -1.70313,-4.4375 0.44532,-4.77343 1.58204,-7.84375 3.40235,-9.21093 0.22656,0.68359 0.34765,1.36718 0.34765,2.05078 0,2.04687 0.67969,3.07031 2.04688,3.07031 1.58984,0 3.86719,-1.13672 6.82422,-3.41406 0.90234,-2.04688 1.36719,-3.75391 1.36719,-5.11719 0,-1.36328 -0.57422,-2.83984 -1.71094,-4.43359 6.59375,0.68359 9.89844,1.93359 9.89844,3.75"
     id="path3979" />
  <path
     style="fill:none;stroke:#ffffff;stroke-width:1.62199998;stroke-linecap:butt;stroke-linejoin:round;stroke-miterlimit:10;stroke-opacity:1"
     d="m 427.73618,230.43775 c 11.60547,2.73047 21.49219,7.96485 29.6875,15.69531 2.5,2.27735 3.52735,4.67188 3.07031,7.16797 -0.67968,1.59375 -2.39062,1.70703 -5.11328,0.34375 -7.05859,-4.32031 -12.74609,-6.82812 -17.07031,-7.51172 2.28125,-0.22265 4.54688,-0.44921 6.82813,-0.67968 -7.05079,-5.67969 -14.21875,-10.46094 -21.4961,-14.33203 0.90625,-0.6836 2.27344,-0.90625 4.09375,-0.6836 z m -3.0664,-32.7539 c 0,1.14062 -1.02735,4.4375 -3.07422,9.89843 4.32031,-3.87109 6.48437,-6.71093 6.48437,-8.53515 l -1.36719,-1.02344 c 5.00391,-0.90625 8.53125,-0.22266 10.57813,2.04687 -0.68359,1.14454 -1.82422,2.39063 -3.40625,3.75782 -1.59766,0.91015 -3.07813,1.93359 -4.4375,3.07031 -2.73438,2.04687 -5.92578,4.21094 -9.5625,6.48047 1.59375,-0.45313 2.84766,-0.79297 3.75781,-1.02344 2.04688,-0.45312 3.75781,-0.56641 5.11719,-0.33984 2.26953,0.67968 3.41406,1.48047 3.41406,2.38672 0,1.36328 -1.47656,2.62109 -4.4375,3.7539 -2.04687,0.91016 -6.02734,3.07031 -11.9414,6.48438 4.54687,-0.91016 8.98437,-1.82032 13.30859,-2.73047 3.18359,-0.44922 5.33984,-0.6836 6.48437,-0.6836 4.54688,-0.45312 8.1836,1.14454 10.91797,4.78125 -1.36718,0.91016 -3.1914,1.36329 -5.45703,1.36329 -9.33203,-1.36329 -18.66015,-0.45313 -27.98047,2.72656 -1.36718,3.1914 -2.73437,6.26172 -4.09375,9.21484 2.4961,-0.22265 4.77344,-0.79687 6.82032,-1.70703 0.91406,-0.22266 1.71093,-0.33984 2.38671,-0.33984 5.00391,-1.58985 8.875,-1.82032 11.60157,-0.6836 3.1875,1.36719 3.63672,3.30078 1.36718,5.80078 -1.14453,1.14063 -2.27734,2.16407 -3.41406,3.07032 2.73438,2.95703 2.26953,4.66406 -1.36719,5.11718 -3.86718,0.6836 -7.73046,2.04688 -11.59765,4.09766 0.45312,1.13672 0.6875,2.27344 0.6875,3.40625 0,3.19141 1.8125,4.89844 5.46094,5.12109 2.72265,0 5.5625,-0.10937 8.52734,-0.33984 3.85937,-0.45312 7.04297,-0.10937 9.55469,1.02344 1.80859,0.91406 2.83593,2.16406 3.07031,3.7539 -7.73828,0.45313 -16.03516,2.95313 -24.91016,7.50391 3.17969,-2.04297 6.13672,-3.98437 8.875,-5.79687 -2.28125,-0.23438 -4.55859,-0.46094 -6.82812,-0.6836 -6.14063,-0.91406 -9.32813,-3.86328 -9.55078,-8.875 -0.23438,-2.95312 -1.02735,-5.45703 -2.39453,-7.5039 4.54687,-1.58594 8.87109,-4.09375 12.96484,-7.50782 2.05078,-1.58984 3.41406,-3.41015 4.09375,-5.45703 -1.82031,0.22656 -3.98047,0.91016 -6.48047,2.04688 -3.41406,1.36718 -6.70703,1.2539 -9.89453,-0.33985 -6.14063,11.14453 -14.21484,15.8086 -24.22266,13.98828 9.55469,-4.54687 16.49219,-11.60546 20.81641,-21.15625 -2.73438,1.14063 -5.23828,2.27735 -7.50781,3.41407 -1.82813,0.68359 -3.30078,0.57031 -4.4375,-0.34375 -1.59766,-1.13672 -2.50782,-2.60938 -2.73047,-4.4336 4.3125,0.23047 10.23828,-1.92968 17.74219,-6.48047 1.59375,-1.58984 2.39453,-2.95312 2.39453,-4.09765 -3.41407,1.59375 -6.15235,0.68359 -8.19532,-2.73047 5.6836,-2.04688 9.09766,-3.63672 10.23829,-4.77734 0.44921,-0.44922 1.25,-3.17969 2.38281,-8.1875 -2.26953,1.82031 -4.31641,4.09765 -6.13672,6.82812 -1.36719,2.04297 -2.73047,2.84375 -4.09375,2.38281 -1.14453,-0.44922 -1.70313,-1.92968 -1.70313,-4.4375 0.44532,-4.77343 1.58204,-7.84375 3.40235,-9.21093 0.22656,0.68359 0.34765,1.36718 0.34765,2.05078 0,2.04687 0.67969,3.07031 2.04688,3.07031 1.58984,0 3.86719,-1.13672 6.82422,-3.41406 0.90234,-2.04688 1.36719,-3.75391 1.36719,-5.11719 0,-1.36328 -0.57422,-2.83984 -1.71094,-4.43359 6.59375,0.68359 9.89844,1.93359 9.89844,3.75 z m 0,0"
     id="path3981" />
  <path
     style="fill:#d91c97;fill-opacity:1;fill-rule:nonzero;stroke:none"
     d="m 251.25181,71.664308 c -0.91016,1.14063 -1.47657,2.16407 -1.69922,3.07032 0.67969,0.23047 1.36328,0.45703 2.04687,0.68359 0,-1.36719 -0.11718,-2.61328 -0.34765,-3.75391 m -30.01953,-8.1875 c -2.28125,2.95704 -4.55469,5.91797 -6.82422,8.8711 2.49609,-1.58985 4.77734,-3.29688 6.82422,-5.11719 z m -8.19141,-15.35546 c -0.46094,3.64062 -0.33984,7.39453 0.33984,11.26171 2.73047,-1.82031 5.34375,-2.84375 7.85157,-3.07421 -0.23047,-4.09375 -0.57422,-7.95704 -1.02344,-11.59766 -2.50781,0 -4.89844,1.14062 -7.16797,3.41016 m 0,14.32812 c -0.22656,2.73047 -0.57031,5.69141 -1.02344,8.875 2.26953,-3.18359 3.86719,-6.02344 4.77735,-8.53125 -1.36329,0 -2.61719,-0.11328 -3.75391,-0.34375 m 38.55859,-21.83594 c 3.41407,-1.36328 6.48047,-1.02343 9.21094,1.02344 v 1.02344 c -5.91797,4.09765 -11.37891,8.98828 -16.37891,14.67187 1.81641,-0.22265 3.75391,0 5.80079,0.6836 3.86328,1.36718 6.2539,3.98047 7.16406,7.84765 2.26953,-1.58593 3.86719,-3.18359 4.77734,-4.77734 1.81641,-2.26953 2.05078,-4.20703 0.6836,-5.79688 1.82031,-0.45703 3.75,-0.11328 5.79687,1.01954 1.37109,0.68359 2.50391,1.70703 3.41406,3.07421 -3.86718,4.77344 -8.64453,8.52735 -14.32812,11.25782 0.22656,2.27734 0.33984,4.66406 0.33984,7.164057 6.59766,2.04687 12.625,5.00781 18.08203,8.87109 1.82032,1.36719 2.95703,2.50782 3.41407,3.41407 0.68359,1.36328 0.5664,2.72656 -0.33985,4.09375 -1.14453,0.23046 -2.62109,0.11718 -4.4375,-0.34375 -5.45703,-1.58594 -10.01172,-1.47657 -13.64844,0.34375 0.6836,-0.6836 1.70704,-1.2461 3.07422,-1.70704 1.35938,-0.45312 2.72266,-1.36328 4.08985,-2.72656 -3.1875,-2.95703 -6.70703,-5.34375 -10.57422,-7.16797 -0.23047,6.60157 -0.91406,11.94141 -2.05078,16.03516 -2.27344,7.285155 -6.02735,8.421875 -11.25782,3.414055 -4.32421,-4.093745 -8.1875,-7.507805 -11.60156,-10.234365 7.73438,3.64062 12.73828,4.66406 15.01563,3.07031 0.90625,-0.68359 1.70703,-2.05078 2.38672,-4.09375 0.68359,-2.73047 1.13671,-6.59766 1.36718,-11.60156 -1.59765,-0.6836 -3.07031,-1.25 -4.4375,-1.707027 -4.09375,5.917957 -8.64843,10.464837 -13.64843,13.648427 -1.82422,1.59375 -3.53125,2.16407 -5.11719,1.70313 v 6.82422 c 0,6.601555 -2.73047,7.167975 -8.1875,1.707025 -1.59766,-1.585935 -3.07422,-3.292965 -4.4375,-5.117185 -1.82422,-2.04687 -3.75391,-3.86719 -5.80078,-5.45703 4.55078,2.95703 8.1914,4.20703 10.92187,3.75 0.67578,-7.27734 0.90235,-14.78125 0.67578,-22.519527 -1.82031,1.82422 -3.52734,3.53125 -5.11328,5.12109 -2.04687,1.820307 -3.7539,2.386717 -5.12109,1.707027 -0.6836,5.45703 -1.48047,10.80469 -2.38672,16.03516 -0.23047,2.04687 -1.02734,3.07031 -2.38672,3.07031 -0.91406,0 -1.82422,-1.02344 -2.73047,-3.07031 -0.68359,-1.82031 -1.02344,-2.95313 -1.02344,-3.41406 0,-0.45313 0.22266,-1.58985 0.6836,-3.41016 2.26953,-7.05078 3.97656,-17.062497 5.11328,-30.027337 0.22656,-3.41407 1.25,-6.70703 3.07422,-9.89453 -2.27735,0.23046 -4.32422,-0.22657 -6.14063,-1.36329 7.04297,-4.32031 13.1875,-6.02734 18.42188,-5.12109 3.41406,0.68359 4.89062,2.84766 4.4375,6.48438 -1.82031,12.96484 -1.9375,26.04687 -0.34375,39.238277 4.32031,-3.1836 7.96094,-7.05078 10.91797,-11.601567 -2.72657,0.6836 -5.23438,1.59375 -7.50391,2.730467 -1.36328,-1.589837 -1.70703,-3.183587 -1.02344,-4.777337 4.09375,-2.73047 7.84766,-5.91406 11.25782,-9.55469 1.58984,2.27735 1.36718,4.55469 -0.6836,6.82422 3.41406,1.14453 4.09766,3.41406 2.05078,6.824217 3.17969,-2.726557 5.91407,-5.230467 8.1836,-7.503907 -0.22657,-1.58984 -0.5625,-3.18359 -1.01953,-4.77734 -1.58985,-4.55078 -5.34766,-4.88672 -11.26172,-1.02344 -2.04688,1.36328 -3.86719,2.04688 -5.45703,2.04688 -1.59766,-2.26953 -1.9375,-4.4375 -1.02344,-6.48438 5,-2.5 9.32422,-6.36328 12.96484,-11.60156 -1.82422,0.23047 -3.29687,0.34375 -4.4375,0.34375 -1.13672,-0.45313 -2.38672,-0.79688 -3.75,-1.02734 -1.36719,-0.22266 -2.27734,-0.67969 -2.73047,-1.36329 5.6836,-1.8164 11.375,-3.7539 17.0625,-5.80078"
     id="path3983" />
  <path
     style="fill:none;stroke:#ffffff;stroke-width:1.62199998;stroke-linecap:butt;stroke-linejoin:round;stroke-miterlimit:10;stroke-opacity:1"
     d="m 251.25181,71.664308 c -0.91016,1.14063 -1.47657,2.16407 -1.69922,3.07032 0.67969,0.23047 1.36328,0.45703 2.04687,0.68359 0,-1.36719 -0.11718,-2.61328 -0.34765,-3.75391 z m -30.01953,-8.1875 c -2.28125,2.95704 -4.55469,5.91797 -6.82422,8.8711 2.49609,-1.58985 4.77734,-3.29688 6.82422,-5.11719 z m -8.19141,-15.35546 c -0.46094,3.64062 -0.33984,7.39453 0.33984,11.26171 2.73047,-1.82031 5.34375,-2.84375 7.85157,-3.07421 -0.23047,-4.09375 -0.57422,-7.95704 -1.02344,-11.59766 -2.50781,0 -4.89844,1.14062 -7.16797,3.41016 z m 0,14.32812 c -0.22656,2.73047 -0.57031,5.69141 -1.02344,8.875 2.26953,-3.18359 3.86719,-6.02344 4.77735,-8.53125 -1.36329,0 -2.61719,-0.11328 -3.75391,-0.34375 z m 38.55859,-21.83594 c 3.41407,-1.36328 6.48047,-1.02343 9.21094,1.02344 v 1.02344 c -5.91797,4.09765 -11.37891,8.98828 -16.37891,14.67187 1.81641,-0.22265 3.75391,0 5.80079,0.6836 3.86328,1.36718 6.2539,3.98047 7.16406,7.84765 2.26953,-1.58593 3.86719,-3.18359 4.77734,-4.77734 1.81641,-2.26953 2.05078,-4.20703 0.6836,-5.79688 1.82031,-0.45703 3.75,-0.11328 5.79687,1.01954 1.37109,0.68359 2.50391,1.70703 3.41406,3.07421 -3.86718,4.77344 -8.64453,8.52735 -14.32812,11.25782 0.22656,2.27734 0.33984,4.66406 0.33984,7.164057 6.59766,2.04687 12.625,5.00781 18.08203,8.87109 1.82032,1.36719 2.95703,2.50782 3.41407,3.41407 0.68359,1.36328 0.5664,2.72656 -0.33985,4.09375 -1.14453,0.23046 -2.62109,0.11718 -4.4375,-0.34375 -5.45703,-1.58594 -10.01172,-1.47657 -13.64844,0.34375 0.6836,-0.6836 1.70704,-1.2461 3.07422,-1.70704 1.35938,-0.45312 2.72266,-1.36328 4.08985,-2.72656 -3.1875,-2.95703 -6.70703,-5.34375 -10.57422,-7.16797 -0.23047,6.60157 -0.91406,11.94141 -2.05078,16.03516 -2.27344,7.285155 -6.02735,8.421875 -11.25782,3.414055 -4.32421,-4.093745 -8.1875,-7.507805 -11.60156,-10.234365 7.73438,3.64062 12.73828,4.66406 15.01563,3.07031 0.90625,-0.68359 1.70703,-2.05078 2.38672,-4.09375 0.68359,-2.73047 1.13671,-6.59766 1.36718,-11.60156 -1.59765,-0.6836 -3.07031,-1.25 -4.4375,-1.707027 -4.09375,5.917957 -8.64843,10.464837 -13.64843,13.648427 -1.82422,1.59375 -3.53125,2.16407 -5.11719,1.70313 v 6.82422 c 0,6.601555 -2.73047,7.167975 -8.1875,1.707025 -1.59766,-1.585935 -3.07422,-3.292965 -4.4375,-5.117185 -1.82422,-2.04687 -3.75391,-3.86719 -5.80078,-5.45703 4.55078,2.95703 8.1914,4.20703 10.92187,3.75 0.67578,-7.27734 0.90235,-14.78125 0.67578,-22.519527 -1.82031,1.82422 -3.52734,3.53125 -5.11328,5.12109 -2.04687,1.820307 -3.7539,2.386717 -5.12109,1.707027 -0.6836,5.45703 -1.48047,10.80469 -2.38672,16.03516 -0.23047,2.04687 -1.02734,3.07031 -2.38672,3.07031 -0.91406,0 -1.82422,-1.02344 -2.73047,-3.07031 -0.68359,-1.82031 -1.02344,-2.95313 -1.02344,-3.41406 0,-0.45313 0.22266,-1.58985 0.6836,-3.41016 2.26953,-7.05078 3.97656,-17.062497 5.11328,-30.027337 0.22656,-3.41407 1.25,-6.70703 3.07422,-9.89453 -2.27735,0.23046 -4.32422,-0.22657 -6.14063,-1.36329 7.04297,-4.32031 13.1875,-6.02734 18.42188,-5.12109 3.41406,0.68359 4.89062,2.84766 4.4375,6.48438 -1.82031,12.96484 -1.9375,26.04687 -0.34375,39.238277 4.32031,-3.1836 7.96094,-7.05078 10.91797,-11.601567 -2.72657,0.6836 -5.23438,1.59375 -7.50391,2.730467 -1.36328,-1.589837 -1.70703,-3.183587 -1.02344,-4.777337 4.09375,-2.73047 7.84766,-5.91406 11.25782,-9.55469 1.58984,2.27735 1.36718,4.55469 -0.6836,6.82422 3.41406,1.14453 4.09766,3.41406 2.05078,6.824217 3.17969,-2.726557 5.91407,-5.230467 8.1836,-7.503907 -0.22657,-1.58984 -0.5625,-3.18359 -1.01953,-4.77734 -1.58985,-4.55078 -5.34766,-4.88672 -11.26172,-1.02344 -2.04688,1.36328 -3.86719,2.04688 -5.45703,2.04688 -1.59766,-2.26953 -1.9375,-4.4375 -1.02344,-6.48438 5,-2.5 9.32422,-6.36328 12.96484,-11.60156 -1.82422,0.23047 -3.29687,0.34375 -4.4375,0.34375 -1.13672,-0.45313 -2.38672,-0.79688 -3.75,-1.02734 -1.36719,-0.22266 -2.27734,-0.67969 -2.73047,-1.36329 5.6836,-1.8164 11.375,-3.7539 17.0625,-5.80078 z m 0,0"
     id="path3985" />
  <path
     style="fill:#d91c97;fill-opacity:1;fill-rule:nonzero;stroke:none"
     d="m 248.1854,397.67213 c -1.59766,0 -3.07031,0.57031 -4.4375,1.70703 -0.45703,0.91015 -0.56641,2.04297 -0.33984,3.41015 1.82031,-1.58984 3.41406,-3.29296 4.77734,-5.11718 m -6.48437,-9.55469 c 2.04687,1.59375 2.83984,3.75391 2.39062,6.48437 v 2.39063 c 5.91016,-2.73047 10.00391,-3.41406 12.28125,-2.05078 1.37109,0.91015 1.25,2.16406 -0.33594,3.7539 -1.14843,0.91407 -2.16797,1.82422 -3.07812,2.72657 -3.41016,2.50781 -6.82031,5.12109 -10.23438,7.85156 v 1.70703 c 13.19141,-3.63672 20.47266,-2.84375 21.83985,2.38281 -1.82422,0.91407 -3.64453,1.3711 -5.46094,1.3711 -4.32422,0 -9.89453,0.67968 -16.71875,2.04297 -0.22656,3.64453 -0.34375,7.16796 -0.34375,10.58203 10.00781,3.18359 19.21875,7.28125 27.63672,12.28125 4.32031,2.73047 5.68359,5.23437 4.09765,7.5039 -0.91015,0.91407 -2.27734,1.02344 -4.09765,0.33985 -7.05078,-2.73047 -12.28125,-4.20313 -15.69141,-4.42969 2.05078,-0.22266 4.20703,-0.45703 6.48047,-0.68359 -6.13672,-4.32422 -12.17187,-7.85157 -18.08203,-10.57813 0,7.50781 0.33984,14.90234 1.02344,22.17578 0,6.36719 -2.39063,7.85156 -7.16407,4.4375 -7.73437,-5.91015 -12.96484,-10.79687 -15.69921,-14.67187 3.86718,2.5039 7.28125,3.98437 10.23828,4.43359 2.73047,0.68359 4.20703,-0.22266 4.4375,-2.73047 0.22265,-5.22656 0.44922,-10.57422 0.68359,-16.03125 -1.14453,-0.22656 -2.16797,-0.45703 -3.07422,-0.68359 -9.55078,12.51172 -19.10547,17.39844 -28.66015,14.66797 9.55468,-3.86328 18.64843,-11.82422 27.29687,-23.88282 -1.59375,0.46094 -4.21484,1.59766 -7.85156,3.41407 -2.5,1.14062 -4.42969,1.48047 -5.79688,1.02343 -2.04687,-0.90625 -3.7539,-2.5039 -5.11718,-4.77734 7.95703,-0.90625 15.69531,-3.97656 23.20312,-9.21094 v -5.12109 c -2.28125,1.36719 -4.32422,3.41406 -6.14453,6.14453 -2.50781,4.08984 -4.89063,4.21094 -7.16797,0.33594 -1.13672,-2.04297 -1.35937,-4.4336 -0.67578,-7.16406 0.44922,-1.36329 1.13281,-2.38672 2.04297,-3.06641 0.45312,0.90625 1.02344,1.82031 1.70703,2.72656 1.58594,2.27735 3.41016,2.61719 5.46094,1.02344 1.58593,-1.13672 3.07031,-2.16016 4.43359,-3.07031 0,-2.72657 -0.11719,-5.45703 -0.33984,-8.1875 0,-2.73047 -1.02344,-5.34375 -3.07032,-7.85157 3.41016,-0.67968 6.59375,0.1211 9.55079,2.39063"
     id="path3987" />
  <path
     style="fill:none;stroke:#ffffff;stroke-width:1.62199998;stroke-linecap:butt;stroke-linejoin:round;stroke-miterlimit:10;stroke-opacity:1"
     d="m 248.1854,397.67213 c -1.59766,0 -3.07031,0.57031 -4.4375,1.70703 -0.45703,0.91015 -0.56641,2.04297 -0.33984,3.41015 1.82031,-1.58984 3.41406,-3.29296 4.77734,-5.11718 z m -6.48437,-9.55469 c 2.04687,1.59375 2.83984,3.75391 2.39062,6.48437 v 2.39063 c 5.91016,-2.73047 10.00391,-3.41406 12.28125,-2.05078 1.37109,0.91015 1.25,2.16406 -0.33594,3.7539 -1.14843,0.91407 -2.16797,1.82422 -3.07812,2.72657 -3.41016,2.50781 -6.82031,5.12109 -10.23438,7.85156 v 1.70703 c 13.19141,-3.63672 20.47266,-2.84375 21.83985,2.38281 -1.82422,0.91407 -3.64453,1.3711 -5.46094,1.3711 -4.32422,0 -9.89453,0.67968 -16.71875,2.04297 -0.22656,3.64453 -0.34375,7.16796 -0.34375,10.58203 10.00781,3.18359 19.21875,7.28125 27.63672,12.28125 4.32031,2.73047 5.68359,5.23437 4.09765,7.5039 -0.91015,0.91407 -2.27734,1.02344 -4.09765,0.33985 -7.05078,-2.73047 -12.28125,-4.20313 -15.69141,-4.42969 2.05078,-0.22266 4.20703,-0.45703 6.48047,-0.68359 -6.13672,-4.32422 -12.17187,-7.85157 -18.08203,-10.57813 0,7.50781 0.33984,14.90234 1.02344,22.17578 0,6.36719 -2.39063,7.85156 -7.16407,4.4375 -7.73437,-5.91015 -12.96484,-10.79687 -15.69921,-14.67187 3.86718,2.5039 7.28125,3.98437 10.23828,4.43359 2.73047,0.68359 4.20703,-0.22266 4.4375,-2.73047 0.22265,-5.22656 0.44922,-10.57422 0.68359,-16.03125 -1.14453,-0.22656 -2.16797,-0.45703 -3.07422,-0.68359 -9.55078,12.51172 -19.10547,17.39844 -28.66015,14.66797 9.55468,-3.86328 18.64843,-11.82422 27.29687,-23.88282 -1.59375,0.46094 -4.21484,1.59766 -7.85156,3.41407 -2.5,1.14062 -4.42969,1.48047 -5.79688,1.02343 -2.04687,-0.90625 -3.7539,-2.5039 -5.11718,-4.77734 7.95703,-0.90625 15.69531,-3.97656 23.20312,-9.21094 v -5.12109 c -2.28125,1.36719 -4.32422,3.41406 -6.14453,6.14453 -2.50781,4.08984 -4.89063,4.21094 -7.16797,0.33594 -1.13672,-2.04297 -1.35937,-4.4336 -0.67578,-7.16406 0.44922,-1.36329 1.13281,-2.38672 2.04297,-3.06641 0.45312,0.90625 1.02344,1.82031 1.70703,2.72656 1.58594,2.27735 3.41016,2.61719 5.46094,1.02344 1.58593,-1.13672 3.07031,-2.16016 4.43359,-3.07031 0,-2.72657 -0.11719,-5.45703 -0.33984,-8.1875 0,-2.73047 -1.02344,-5.34375 -3.07032,-7.85157 3.41016,-0.67968 6.59375,0.1211 9.55079,2.39063 z m 0,0"
     id="path3989" />
  <path
     style="fill:#d91c97;fill-opacity:1;fill-rule:nonzero;stroke:#ffffff;stroke-width:2.12100005;stroke-linecap:butt;stroke-linejoin:miter;stroke-miterlimit:10;stroke-opacity:1"
     d="m 155.21274,279.05885 -5.99218,-18.10938 c 30.57031,-5.17187 52.66015,-16.74219 57.98437,-34.46094 -19.67578,-11.33984 -31.8125,-33.86328 -25.92969,-73.32031 1.84766,1.59375 15.13282,12.66406 17.83594,12.66406 V 142.6565 c 12.48047,10.51172 22.6836,13.66016 53.48828,21.02735 11.94532,2.85937 18.54688,6.41796 25.67188,19.26562 26.16015,-7.87891 44.53906,-12.96484 61.04297,-15.4375 -22.82813,-29.51172 -58.5586,-48.53906 -98.75782,-48.53906 -68.91015,0 -124.77734,55.85937 -124.77734,124.77734 0,68.91016 55.86719,124.78516 124.77734,124.78516 28.08204,0 54,-9.28516 74.85938,-24.94141 -0.0117,-3.0039 -0.10156,-7.0625 -0.10156,-10.98047 -73.4336,8.6875 -132.14063,-17.85156 -154.67969,-37.15625 l -5.42188,-16.39843"
     id="path3991" />
  <path
     style="fill:#d91c97;fill-opacity:1;fill-rule:nonzero;stroke:none"
     d="m 241.17759,172.594 c -11.96875,-1.42187 -21.91016,-4.32422 -28.78125,-8.32422 v 7.64453 c 16.08984,3.95313 29.71094,9.82422 41.72656,19.90625 l 14.61328,-5.04296 c -9.01172,-11.04688 -19.49219,-13.08985 -27.55859,-14.1836"
     id="path3993" />
  <path
     style="fill:none;stroke:#ffffff;stroke-width:2.12100005;stroke-linecap:butt;stroke-linejoin:miter;stroke-miterlimit:10;stroke-opacity:1"
     d="m 241.17759,172.594 c -11.96875,-1.42187 -21.91016,-4.32422 -28.78125,-8.32422 v 7.64453 c 16.08984,3.95313 29.71094,9.82422 41.72656,19.90625 l 14.61328,-5.04296 c -9.01172,-11.04688 -19.49219,-13.08985 -27.55859,-14.1836 z m 0,0"
     id="path3995" />
  <path
     style="fill:#d91c97;fill-opacity:1;fill-rule:nonzero;stroke:none"
     d="m 217.22056,249.06275 v -10.6289 l 21.07031,10.6289 z M 346.3104,177.53931 c -21.50781,4.63672 -52.23047,9.58204 -87.82812,22.67188 v 15.51953 c -3.98829,-11.83594 -10.89844,-18.61719 -21.80079,-23.66797 -15.95312,-10.90625 -34.5664,-9.11328 -46,-18.75 2.82032,36.5586 20.73829,48.80078 47.29688,63.95703 -12.04688,-1.78906 -14.32813,-2.93359 -20.44531,-5.85547 -11.70703,25.52735 -35.89063,34.57032 -53.70703,36.17188 l 7.70312,22.33203 15.16016,9.04688 27.92187,-10.11329 -21.10937,13.82422 c 20.89062,9.44141 57.0039,24.46485 120.29297,18.34766 -1.33594,-10.09766 -1.33594,-10.09766 -8.51172,-23.39453 13.60937,9.42187 18.58203,25.0625 20.0664,37.64062 24.58985,-22.78515 39.99219,-55.35156 39.99219,-91.52343 0,-24.32032 -6.98437,-47.01563 -19.03125,-66.20704"
     id="path3997" />
  <path
     style="fill:none;stroke:#ffffff;stroke-width:2.12100005;stroke-linecap:butt;stroke-linejoin:miter;stroke-miterlimit:10;stroke-opacity:1"
     d="m 217.22056,249.06275 v -10.6289 l 21.07031,10.6289 z M 346.3104,177.53931 c -21.50781,4.63672 -52.23047,9.58204 -87.82812,22.67188 v 15.51953 c -3.98829,-11.83594 -10.89844,-18.61719 -21.80079,-23.66797 -15.95312,-10.90625 -34.5664,-9.11328 -46,-18.75 2.82032,36.5586 20.73829,48.80078 47.29688,63.95703 -12.04688,-1.78906 -14.32813,-2.93359 -20.44531,-5.85547 -11.70703,25.52735 -35.89063,34.57032 -53.70703,36.17188 l 7.70312,22.33203 15.16016,9.04688 27.92187,-10.11329 -21.10937,13.82422 c 20.89062,9.44141 57.0039,24.46485 120.29297,18.34766 -1.33594,-10.09766 -1.33594,-10.09766 -8.51172,-23.39453 13.60937,9.42187 18.58203,25.0625 20.0664,37.64062 24.58985,-22.78515 39.99219,-55.35156 39.99219,-91.52343 0,-24.32032 -6.98437,-47.01563 -19.03125,-66.20704 z m 0,0"
     id="path3999" />
  <path
     style="fill:#ffffff;fill-opacity:1;fill-rule:nonzero;stroke:none"
     d="m 194.73228,347.68775 c 0.0117,0.0156 0.0273,0.0234 0.0391,0.043 -0.20703,0.13672 -0.61328,0.4375 -0.61328,0.4375 0.004,0.0352 0.94922,0.25 2.14453,0.46484 0.008,0.0234 0.0195,0.0234 0.0273,0.043 -0.98437,0.29297 -2.5039,0.0586 -3.01562,0.24219 -0.27735,0.10156 -0.66016,0.79688 -0.86328,1.22656 -0.36719,0.77344 -0.11719,2.66797 -0.25782,2.85547 -0.10937,0.14844 -1.85547,0.47266 -1.9375,0.42188 -0.125,-0.0781 0.0703,-1.33203 0.42969,-2.08203 0.46484,-0.96094 2.11328,-2.51172 2.11328,-2.51172 -0.0117,-0.043 -1.04687,-0.27344 -1.5,-0.50391 -0.32422,-0.15625 -0.87109,-0.54297 -0.87109,-0.55078 0.0117,-0.0781 1.41015,-1.00781 1.60156,-0.98828 0.21484,0.0156 0.97266,0.88281 1.53516,1.15234 0.1289,0.0586 0.3164,0.17188 0.40234,0.16016 0.11328,-0.008 0.41406,-0.23047 0.76563,-0.41016"
     id="path4001" />
  <path
     style="fill:#ffffff;fill-opacity:1;fill-rule:nonzero;stroke:none"
     d="m 197.26743,353.42994 c -0.33984,-0.043 -0.93359,-0.78906 -1.17969,-1.21875 -0.30859,-0.54297 -0.34765,-1.05078 -0.13281,-1.53906 0.26563,-0.61328 0.73047,-0.98047 1.39453,-1.09375 0.58203,-0.10157 1.22266,0 1.91016,0.28515 0.91406,0.36719 1.51953,0.91016 1.84375,1.64063 -0.0156,0.0195 -0.0234,0.0195 -0.0391,0.0351 -0.60547,-0.6289 -1.17188,-1.05859 -1.71875,-1.28125 -0.40625,-0.16406 -0.80078,-0.23437 -1.19532,-0.21484 -0.48828,0.0273 -0.80859,0.20703 -0.94921,0.53516 -0.27735,0.65234 0.13281,1.30468 1.24218,1.93359 -0.0859,-0.12109 -0.13281,-0.19141 -0.21875,-0.32031 0.0195,-0.008 0.0274,-0.008 0.0508,-0.008 0.1211,0.0937 0.3125,0.37109 0.53516,0.51562 0.10547,0.0703 0.37891,0.12891 0.67188,0.24219 0,0.0234 -0.0117,0.043 -0.0117,0.0586 -0.15625,0.0156 -0.21875,0.0156 -0.375,0.0234 0.70703,0.95703 0.92578,1.77344 0.65234,2.49609 -0.19922,0.52344 -0.59766,0.88672 -1.17969,1.03907 -0.54687,0.13671 -1.12109,0.0781 -1.73437,-0.17188 -0.58594,-0.23047 -1.3086,-0.60156 -1.55078,-0.99609 -0.25391,-0.41407 -0.34375,-1.44532 -0.48828,-2.46875 0.0195,-0.008 0.0234,-0.008 0.0391,-0.0156 0.42578,0.92188 1.10937,1.57031 2.02734,1.94922 0.48828,0.19922 0.92969,0.26953 1.29297,0.19141 0.42578,-0.0781 0.71875,-0.32813 0.88672,-0.75 0.12891,-0.32422 -0.0234,-1.11719 -0.23047,-1.21875 -0.27344,-0.13672 -1.35937,0.37109 -1.54297,0.35156"
     id="path4003" />
  <path
     style="fill:#ffffff;fill-opacity:1;fill-rule:nonzero;stroke:none"
     d="m 204.73618,358.82838 c -0.0156,0.0195 -0.043,0.0195 -0.0586,0.0273 -0.41797,-0.27734 -0.96094,-0.67187 -1.12891,-0.65234 -0.16797,0.0156 -0.73828,0.44531 -0.80859,0.40234 -0.0547,-0.0352 -0.13281,-0.67969 -0.28125,-0.83203 -0.0664,-0.0625 -0.77344,-0.15625 -0.79297,-0.14063 -0.0156,0.0195 0.0859,0.35157 0.15625,0.62891 -0.0195,0.008 -0.0273,0.008 -0.043,0.008 -0.0625,-0.14453 -0.15234,-0.5664 -0.25781,-0.64453 -0.11328,-0.0781 -0.82422,0.0937 -0.94141,0.0352 -0.17187,-0.0937 -0.7539,-1.07422 -0.7539,-1.07422 0.0195,-0.043 1.42187,0.10156 1.4375,0.0937 0.14453,-0.14453 -0.21094,-2.47656 0.17968,-3.52344 0.27344,-0.73047 1.20313,-1.875 1.23828,-1.86719 0.0859,0.0274 0.90625,1.44532 0.88672,1.58204 -0.043,0.24218 -1.33984,1.20312 -1.66015,2.08984 -0.19532,0.53125 -0.29688,1.14062 -0.30078,1.8125 0.21484,0.0781 0.32421,0.11328 0.53906,0.19141 1.58984,-0.6211 2.625,-1.76563 3.16406,-3.38672 0.125,-0.37891 0.23828,-0.77735 0.31641,-1.20703 0.0234,-0.008 0.0391,-0.008 0.0625,-0.008 0.11328,0.97266 0.008,1.98828 -0.33594,3.02735 -0.35547,1.08593 -1.53125,2.42578 -1.52344,2.59375 0.004,0.14062 0.70703,0.62109 0.90625,0.84375"
     id="path4005" />
  <path
     style="fill:#ffffff;fill-opacity:1;fill-rule:nonzero;stroke:none"
     d="m 205.70103,355.84791 c 0.008,-0.0274 0.008,-0.0352 0.0156,-0.0547 0.21875,0.0195 0.83594,0.0977 0.96875,-0.008 0.23438,-0.17969 0.20313,-1.70313 0,-3.12891 0.0273,0 0.0352,-0.0273 0.0625,-0.0273 0.45703,1 0.64844,2.93359 0.78125,3.02734 0.12109,0.0937 1.13672,-0.35937 1.58594,-0.67969 0.40625,-0.28125 1.17578,-1.21093 1.17578,-1.21093 0.0469,0.008 0.375,1.3164 0.17187,1.68359 -0.17187,0.3125 -1.8789,0.71484 -1.88281,0.72266 -0.0781,0.1914 1.125,2.22656 0.81641,3.33593 -0.0937,0.34375 -0.46094,1.03125 -0.46094,1.03125 -0.0859,0 -0.99609,-1.21875 -1.01562,-1.375 -0.0156,-0.1875 0.49218,-0.83203 0.59375,-1.19531 0.17187,-0.59375 0.0547,-1.66015 -0.16797,-1.78906 -0.0859,-0.043 -0.75391,0 -0.80469,0.0508 -0.11719,0.125 -0.0898,1.08594 -0.24219,1.58594 -0.2539,0.82422 -1.10547,1.85547 -1.19531,1.82812 -0.12109,-0.0312 -1.0625,-1.375 -1.05469,-1.51953 0.0117,-0.28515 1.58985,-1.90234 1.53125,-2.02344 -0.0234,-0.0508 -0.48828,-0.14453 -0.8789,-0.2539"
     id="path4007" />
  <path
     style="fill:#ffffff;fill-opacity:1;fill-rule:nonzero;stroke:none"
     d="m 214.89634,361.61744 c -0.0156,0.004 -0.0312,0.0156 -0.043,0.0234 -0.44141,-0.23047 -1.01953,-0.58594 -1.18359,-0.55078 -0.16407,0.0351 -0.70704,0.52734 -0.77344,0.49218 -0.0625,-0.0351 -0.1875,-0.67187 -0.35156,-0.80859 -0.0664,-0.0625 -0.78125,-0.0859 -0.79297,-0.0703 -0.0156,0.0273 0.125,0.35156 0.21875,0.6289 -0.0156,0 -0.0234,0 -0.043,0.008 -0.0742,-0.13672 -0.19922,-0.5586 -0.3125,-0.62891 -0.11719,-0.0664 -0.8125,0.17187 -0.9375,0.12109 -0.17969,-0.0781 -0.84375,-0.98047 -0.84375,-0.98047 0.0117,-0.0508 1.41406,-0.043 1.42578,-0.0586 0.13672,-0.15625 -0.41797,-2.44141 -0.12891,-3.51562 0.20313,-0.75 1.01172,-1.98829 1.04688,-1.98829 0.0859,0.0195 1.03515,1.35938 1.02734,1.4961 -0.0156,0.25 -1.21484,1.32422 -1.45312,2.23437 -0.14453,0.55078 -0.1836,1.16016 -0.12891,1.83203 0.21875,0.0508 0.33203,0.0859 0.55078,0.14844 1.51563,-0.76562 2.4336,-2.0039 2.82422,-3.67187 0.0898,-0.38672 0.16406,-0.78516 0.20313,-1.22266 0.0195,-0.008 0.0273,-0.0156 0.0508,-0.0156 0.20312,0.95312 0.1914,1.96875 -0.0508,3.04296 -0.25391,1.11719 -1.30079,2.55469 -1.27735,2.72657 0.0156,0.13672 0.75391,0.55078 0.97266,0.75781"
     id="path4009" />
  <path
     style="fill:#ffffff;fill-opacity:1;fill-rule:nonzero;stroke:none"
     d="m 219.89634,360.62525 c 0.0625,-0.32422 -0.19922,-1.0039 -0.42188,-1.07422 -0.1875,-0.0508 -0.97656,0.25 -1.08203,0.17969 -0.18359,-0.125 -0.72265,-0.99609 -0.73437,-0.98828 -0.0547,0.0273 -0.0859,0.86328 -0.19141,1.38672 -0.0781,0.36719 -0.3125,0.88281 -0.28125,0.96875 0.0391,0.12109 0.60547,0.3125 0.92188,0.37109 0.41796,0.0859 0.82031,0.0586 1.14062,-0.0703 0.375,-0.14453 0.58203,-0.40234 0.64844,-0.77344 m -1.66406,-4.69531 c -0.33985,-0.0664 -1.08204,-0.10938 -1.08985,-0.10156 -0.0703,0.11328 0.33985,2.34765 0.52344,2.53906 0.10937,0.10937 0.94922,-0.0195 1.36328,-0.14844 0.54297,-0.16406 0.84375,-0.44531 0.91016,-0.80859 0.0703,-0.36719 -0.11719,-0.69531 -0.55469,-0.9961 -0.33594,-0.23437 -0.71484,-0.38671 -1.15234,-0.48437 m 3.63671,5.4375 c -0.0742,0.47266 -0.37109,0.88281 -0.91406,1.23828 -0.55859,0.35938 -1.33594,0.45313 -2.3164,0.26563 -0.26563,-0.0547 -0.50782,-0.10547 -0.7461,-0.19141 -0.40234,-0.40234 -0.60547,-0.61719 -0.99609,-1.03125 -0.25781,0.38672 -0.56641,0.64453 -0.60547,0.62891 -0.12109,-0.0703 -0.26953,-0.63672 -0.40625,-0.84375 -0.13672,-0.1875 -0.64844,-0.64454 -0.64063,-0.70313 0.0117,-0.25 1.36329,-1.40234 1.61329,-2.29687 -0.20313,-0.0234 -0.30079,-0.0234 -0.50391,-0.0508 0.004,-0.0156 0.0117,-0.043 0.0156,-0.0625 0.19532,-0.0234 0.36329,-0.008 0.51563,0.0117 0.008,-0.043 0.0117,-0.0703 0.0195,-0.11328 0.17188,-0.77344 0.15625,-1.5625 -0.043,-2.39844 -0.34765,0.0508 -0.51953,0.0781 -0.86719,0.12891 -0.004,-0.008 0,-0.0273 -0.004,-0.0352 0.0976,-0.0508 0.25,-0.10156 0.43359,-0.15234 0.21094,-0.0625 0.40625,-0.11328 0.41797,-0.14062 0.0117,-0.0234 -0.0547,-0.23047 -0.12109,-0.41016 0.0117,-0.0117 0.0156,-0.0195 0.0312,-0.0273 0.14062,0.11328 0.25,0.38671 0.30859,0.42968 0.25391,0.14844 1.33984,-0.043 1.87109,0.0586 0.60547,0.12109 1.10547,0.37109 1.50782,0.76562 0.45312,0.44141 0.65234,0.94922 0.55468,1.50781 -0.082,0.47266 -0.71484,1.21094 -0.71093,1.2461 0.0351,0.23047 1.73047,1.3125 1.58593,2.17578"
     id="path4011" />
  <path
     style="fill:#ffffff;fill-opacity:1;fill-rule:nonzero;stroke:none"
     d="m 226.26353,360.9026 c 0.12109,0.0664 0.41796,0.60156 0.41796,0.60156 0.0352,-0.008 -0.17578,-1.27344 -0.53906,-2.03125 -0.33203,-0.6875 -1.18359,-1.76953 -1.18359,-1.76953 -0.0352,0.0156 0.10937,1.65234 0,2.46093 -0.0274,0.1875 -0.125,0.4961 -0.10156,0.53907 0.0391,0.0703 0.45703,0.1289 0.65625,0.15625 0.17187,0.0156 0.60937,-0.043 0.75,0.043 m -1.64063,-4.28125 c 0.13281,0.23046 0.19922,0.55078 0.26563,0.66796 0.42968,0.73047 1.89843,1.77344 2.46875,2.875 0.59375,1.15235 0.84765,2.35157 0.71484,3.61719 -0.0195,0.14844 -0.0703,0.42969 -0.0703,0.42969 -0.0703,0.0273 -1.62891,-0.85938 -1.69141,-1.02344 -0.0352,-0.10937 0.28516,-0.69531 0.31641,-0.98828 0.0117,-0.0937 0.008,-0.13672 0.0195,-0.23047 -0.10547,-0.0195 -0.15235,-0.0273 -0.26172,-0.043 -0.55859,-0.0625 -1.60547,-0.54297 -1.74219,-0.49218 -0.25781,0.10546 -1.70703,2.21093 -1.78515,2.18359 -0.10938,-0.043 -0.76172,-1.66016 -0.72657,-1.75391 0.0508,-0.13672 1.54688,-0.91015 1.53516,-1.07422 -0.004,-0.10937 -0.4375,-0.41406 -0.53516,-0.51562 -0.20312,-0.20703 -0.35547,-0.41016 -0.47656,-0.60156 0.008,-0.008 0.004,-0.0156 0.0117,-0.0274 0.26953,0.1836 1.09766,0.80078 1.26953,0.75782 0.19531,-0.0508 0.58594,-1.2461 0.71875,-2.16407 0.0508,-0.37109 0.10156,-0.74218 0.043,-0.85156 -0.0547,-0.10547 -0.29688,-0.29297 -0.52734,-0.52734 0.0156,-0.008 0.0234,-0.0234 0.0351,-0.0352 0.14844,0.0703 0.49219,0.33594 0.49219,0.33594 0.008,-0.008 -0.0781,-0.35938 -0.11719,-0.52344 0.0195,-0.008 0.0274,-0.008 0.043,-0.0156"
     id="path4013" />
  <path
     style="fill:#ffffff;fill-opacity:1;fill-rule:nonzero;stroke:none"
     d="m 231.00181,359.75806 c 0.0195,-0.0195 0.0312,-0.0273 0.0469,-0.043 0.16797,0.14843 0.80469,0.60937 0.80469,0.60937 0.0273,-0.0156 -0.16406,-0.82422 -0.41797,-1.46094 -0.0664,-0.14453 -0.27734,-0.63672 -0.625,-1.44531 0.0234,-0.0234 0.0312,-0.043 0.0586,-0.0664 0.89063,1.23829 1.33594,2.95704 1.73047,3.48829 0.16797,0.22265 1.27344,0.50781 1.29297,0.49218 0.0508,-0.043 -0.10547,-0.8164 -0.082,-1.21875 0.0469,-0.82812 0.67188,-2.20312 0.71484,-2.20312 0.0859,0 1.34766,1.05859 1.36329,1.16015 0.0351,0.21485 -1.02344,1.54688 -1.06641,2.42579 0.10156,0.008 0.15625,0.008 0.25391,0.008 0.10156,0.24219 0.48437,1.05859 0.48437,1.05859 -0.0156,0.0156 -0.65234,-0.0703 -0.67578,-0.0469 -0.0859,0.0976 0.40234,1.3789 0.9375,2.33984 -0.0156,0.0195 -0.0156,0.0352 -0.0352,0.0508 -0.7539,-0.79687 -1.23828,-2.1914 -1.60937,-2.53515 -0.21875,-0.19532 -1.45703,-0.70313 -1.45703,-0.70313 -0.0156,0.008 0.0234,0.41797 0.008,0.625 -0.0508,0.78516 -0.71875,2.15234 -0.80469,2.15234 -0.1289,0 -1.2539,-1.12109 -1.26562,-1.20703 -0.0195,-0.13672 0.64453,-0.8164 0.8125,-1.10937 0.23437,-0.41797 0.47656,-1.03906 0.39062,-1.28906 -0.10937,-0.32422 -0.67187,-0.78125 -0.85937,-1.08204"
     id="path4015" />
  <path
     style="fill:#ffffff;fill-opacity:1;fill-rule:nonzero;stroke:none"
     d="m 236.1854,357.6526 c 1.28125,1.53906 1.96094,3.15625 1.92969,4.88281 -0.0117,0.88672 -0.64453,2.26953 -0.64844,2.26953 -0.0703,0 -1.42578,-1.1875 -1.44141,-1.28125 -0.0312,-0.20703 0.9961,-1.53906 1.02344,-2.5 0.0234,-1.00781 -0.28515,-2.13281 -0.91406,-3.36328 0.0195,0 0.0312,0 0.0508,-0.008"
     id="path4017" />
  <path
     style="fill:#ffffff;fill-opacity:1;fill-rule:nonzero;stroke:none"
     d="m 243.94712,358.14869 c 0.22656,-0.0156 0.8125,-0.16406 0.85156,-0.12891 0.0352,0.0274 -0.16797,0.5586 -0.14453,0.75 0.0195,0.1211 0.24609,0.4375 0.42578,0.8086 -0.0195,0 -0.0195,-0.008 -0.043,0 -0.11328,-0.14063 -0.46875,-0.59375 -0.5,-0.59375 -0.0781,0.008 -0.49609,0.67187 -0.83593,0.96093 -0.0234,0 -0.0274,-0.008 -0.0547,-0.008 0.14453,-0.34375 0.22265,-0.53906 0.24219,-0.60156 0.0625,-0.19531 0.17578,-0.56641 0.125,-0.65234 -0.0859,-0.15625 -0.76172,-0.25 -1.23438,-0.24219 -0.74219,0.0195 -1.35156,0.25781 -1.84375,0.73047 -0.48828,0.46484 -0.73828,1.05859 -0.73828,1.76172 0,0.67187 0.3125,1.24218 0.94922,1.69531 0.59375,0.42187 1.28125,0.62109 2.03125,0.60156 0.75,-0.0234 1.38672,-0.39453 1.88281,-1.125 -0.0898,0.008 -0.12891,0.008 -0.21875,0.008 -0.65625,0.043 -1.33203,-0.0156 -1.99219,-0.19922 -0.71484,-0.1875 -1.29687,-0.46093 -1.7539,-0.83984 0.0117,-0.0195 0.0234,-0.0273 0.0351,-0.043 0.74219,0.25781 1.46875,0.36719 2.19141,0.35156 0.63672,-0.0156 1.47656,-0.40234 1.73047,-0.3789 0.14062,0.0195 1.03515,0.67187 1.04297,0.75781 0.004,0.0352 -0.65235,0.17969 -0.83203,0.31641 -0.11719,0.0976 -0.37891,0.71484 -0.8086,1.34375 -0.47265,0.6875 -0.78906,1.07422 -0.95312,1.13281 -0.24219,0.10547 -0.57422,0.15625 -0.96485,0.16406 -1.03906,0.0274 -1.91797,-0.30078 -2.61328,-0.98828 -0.68359,-0.66016 -1.01562,-1.48047 -1.00781,-2.43359 0.008,-0.9375 0.35156,-1.71875 1.02344,-2.34766 0.66406,-0.63672 1.48047,-0.95312 2.44922,-0.98047 0.48437,-0.008 1.00781,0.0781 1.57031,0.25 -0.004,-0.0273 -0.008,-0.043 -0.0117,-0.0703"
     id="path4019" />
  <path
     style="fill:#ffffff;fill-opacity:1;fill-rule:nonzero;stroke:none"
     d="m 245.90806,359.95728 c 0.0117,-0.0195 0.0156,-0.0195 0.0273,-0.043 0.19141,0.12891 0.88281,0.50782 0.88281,0.50782 0.0234,-0.0195 -0.26953,-0.80078 -0.60547,-1.39453 -0.0859,-0.13672 -0.36328,-0.60938 -0.82031,-1.36719 0.0234,-0.0274 0.0352,-0.0274 0.0547,-0.0586 1.05078,1.10547 1.73047,2.74219 2.19531,3.21485 0.19922,0.20703 1.32422,0.33594 1.33594,0.3164 0.043,-0.0508 -0.21094,-0.80078 -0.24219,-1.20312 -0.0625,-0.81641 0.35938,-2.26172 0.40625,-2.26953 0.082,-0.0156 1.47266,0.86719 1.5,0.96094 0.0664,0.21875 -0.78906,1.67968 -0.71484,2.54687 0.10156,-0.008 0.14844,-0.008 0.25,-0.0156 0.125,0.22265 0.6289,0.96875 0.6289,0.96875 -0.008,0.0195 -0.65625,0.0195 -0.67968,0.0547 -0.0742,0.10938 0.59375,1.30469 1.2539,2.19141 -0.0156,0.0273 -0.0195,0.0312 -0.0312,0.0586 -0.85547,-0.69531 -1.54687,-2.01172 -1.95703,-2.29687 -0.24609,-0.17188 -1.51562,-0.50781 -1.51562,-0.50781 -0.0195,0.0195 0.0664,0.41406 0.082,0.62109 0.0547,0.78125 -0.41797,2.21875 -0.50391,2.23437 -0.1289,0.0195 -1.39844,-0.9375 -1.42187,-1.02343 -0.0391,-0.12891 0.53125,-0.89063 0.65625,-1.20313 0.17578,-0.44531 0.32812,-1.08203 0.21484,-1.32422 -0.16016,-0.30859 -0.76953,-0.69531 -0.99609,-0.96875"
     id="path4021" />
  <path
     style="fill:#ffffff;fill-opacity:1;fill-rule:nonzero;stroke:none"
     d="m 255.72837,360.78931 c -0.30469,0.13672 -1.18359,-0.21484 -1.60938,-0.46484 -0.53125,-0.30078 -0.82812,-0.71094 -0.89062,-1.24609 -0.082,-0.66016 0.13281,-1.21094 0.64062,-1.65235 0.4375,-0.375 1.01954,-0.61718 1.75,-0.73047 0.96094,-0.13671 1.76954,0.0195 2.41016,0.49219 -0.0117,0.0156 -0.0273,0.0352 -0.0312,0.0508 -0.83203,-0.24218 -1.52734,-0.3164 -2.09766,-0.23047 -0.42187,0.0586 -0.78906,0.20704 -1.11718,0.41797 -0.40625,0.26953 -0.59766,0.58594 -0.54688,0.94922 0.0899,0.69531 0.77735,1.04688 2.03516,1.03125 -0.14063,-0.0625 -0.20313,-0.0976 -0.33985,-0.16406 0.0117,-0.0156 0.0117,-0.0273 0.0274,-0.043 0.14844,0.0156 0.43359,0.16406 0.69922,0.17188 0.12109,0.008 0.38672,-0.0625 0.6914,-0.11329 0.0117,0.0195 0.0234,0.0195 0.0274,0.0352 -0.1211,0.0859 -0.17969,0.12891 -0.30469,0.21484 1.07031,0.46485 1.68359,1.07422 1.8125,1.83204 0.0937,0.55859 -0.0625,1.0664 -0.48438,1.48828 -0.39453,0.39453 -0.91796,0.625 -1.55859,0.72265 -0.61328,0.0859 -1.41406,0.14453 -1.8125,-0.0703 -0.42187,-0.23047 -1.00391,-1.05859 -1.63672,-1.86328 0.0156,-0.0195 0.0234,-0.0195 0.0352,-0.0352 0.8164,0.56641 1.70703,0.78907 2.67578,0.65235 0.51562,-0.0781 0.91406,-0.24219 1.19141,-0.48828 0.32031,-0.28516 0.45312,-0.65625 0.375,-1.10157 -0.0508,-0.34375 -0.58204,-0.97265 -0.80469,-0.95703 -0.29688,0.0274 -0.97266,1.02344 -1.13672,1.10156"
     id="path4023" />
  <path
     style="fill:#ffffff;fill-opacity:1;fill-rule:nonzero;stroke:none"
     d="m 264.70103,356.07838 c 0.0234,0.0508 0.25,0.17968 0.42578,0.34375 -0.0117,0.0156 -0.0234,0.0273 -0.0312,0.043 -0.17969,-0.0781 -0.26172,-0.12891 -0.44141,-0.21485 -0.23047,0.62891 -0.5,1.06641 -0.79687,1.33203 -0.0156,-0.008 -0.0274,-0.008 -0.0469,-0.0156 0.19141,-0.51563 0.32422,-1.38672 0.1875,-1.53906 -0.14844,-0.16407 -0.98828,-0.12891 -1.49609,-0.0195 -0.6836,0.14844 -1.22657,0.49219 -1.6211,1.05079 -0.39843,0.5664 -0.52734,1.17968 -0.40625,1.82031 0.13672,0.72265 0.55078,1.25 1.26172,1.5664 0.64844,0.28516 1.38281,0.34375 2.20313,0.16407 0.88672,-0.19922 1.53906,-0.65235 1.94531,-1.35157 0.0156,0.0117 0.0273,0.0117 0.0469,0.0195 -0.46093,1.03906 -0.69921,1.57421 -1.1875,2.61328 -0.35156,0.14453 -0.67578,0.25 -0.96875,0.30859 -1.08984,0.23047 -2.07031,0.0937 -2.91406,-0.41406 -0.84375,-0.50391 -1.34765,-1.26172 -1.51953,-2.25 -0.16016,-0.90235 0.008,-1.71875 0.48828,-2.44141 0.4961,-0.75781 1.21094,-1.23047 2.13672,-1.42969 0.54688,-0.10937 1.1875,-0.0586 1.95703,0.0977 -0.0195,-0.082 -0.0195,-0.12891 -0.0351,-0.20703 0.33203,-0.12109 0.79687,-0.54297 0.79687,-0.54297 0.0352,0.008 -0.0625,0.90234 0.0156,1.06641"
     id="path4025" />
  <path
     style="fill:#ffffff;fill-opacity:1;fill-rule:nonzero;stroke:none"
     d="m 266.07212,356.98072 c 0.0117,-0.0156 0.0156,-0.0352 0.0195,-0.0586 0.21094,0.0859 0.96875,0.33203 0.96875,0.33203 0.0234,-0.0234 -0.42969,-0.73828 -0.86719,-1.26172 -0.10937,-0.12109 -0.46093,-0.51563 -1.05078,-1.16797 0.0195,-0.0352 0.0274,-0.0469 0.043,-0.0781 1.23828,0.88671 2.21094,2.36328 2.75,2.74218 0.23438,0.16407 1.38672,0.0937 1.40234,0.0664 0.0352,-0.0586 -0.36718,-0.73828 -0.46875,-1.125 -0.21875,-0.78906 -0.0625,-2.29297 -0.0156,-2.3125 0.082,-0.0312 1.61719,0.57812 1.66406,0.66016 0.10156,0.1914 -0.49219,1.80078 -0.25,2.64062 0.0937,-0.0234 0.14844,-0.0312 0.24219,-0.0586 0.17187,0.19531 0.80078,0.83203 0.80078,0.83203 -0.004,0.0195 -0.63672,0.14062 -0.65625,0.17578 -0.0508,0.11719 0.82813,1.17578 1.64844,1.92578 -0.008,0.0234 -0.0156,0.0312 -0.0274,0.0586 -0.97265,-0.52343 -1.88281,-1.68359 -2.34375,-1.89062 -0.27343,-0.12891 -1.61328,-0.21484 -1.61328,-0.21484 -0.0117,0.0156 0.14453,0.40234 0.19532,0.60156 0.19921,0.7539 0,2.26172 -0.0859,2.28515 -0.125,0.043 -1.54297,-0.66015 -1.58203,-0.73828 -0.0625,-0.12109 0.35937,-0.97265 0.42187,-1.30859 0.0937,-0.46484 0.12891,-1.125 -0.0312,-1.33984 -0.21484,-0.27344 -0.89062,-0.54297 -1.16406,-0.76563"
     id="path4027" />
  <path
     style="fill:#ffffff;fill-opacity:1;fill-rule:nonzero;stroke:none"
     d="m 277.52134,357.60963 c 0.35937,-0.28516 0.41015,-1.38672 0.15625,-2.09766 -0.33985,-0.9375 -0.97266,-1.56641 -1.92578,-1.90234 -0.83985,-0.29297 -2.47657,-0.45313 -2.88672,-0.0937 -0.28516,0.25 -0.28125,1.41797 -0.0664,2.10547 0.26953,0.86328 0.87891,1.48046 1.85156,1.85156 0.89063,0.33203 2.39063,0.5039 2.8711,0.13672 m -1.75391,1.5625 c -0.88672,0.13672 -1.6875,-0.0312 -2.42187,-0.4961 -0.71485,-0.45703 -1.17969,-1.0664 -1.41016,-1.85156 -0.23828,-0.79687 -0.1875,-1.625 0.13672,-2.48437 0.3125,-0.83204 0.8125,-1.51954 1.51172,-2.07813 0.0195,0.008 0.0351,0.008 0.0547,0.0156 -0.27735,0.29296 -0.66016,0.9375 -0.66016,0.9375 0.0312,0.0273 1.375,-0.94532 1.84375,-1.15235 0.61328,-0.27344 1.57031,-0.0586 2.32812,0.37891 0.72266,0.41406 1.23047,0.98828 1.50782,1.73047 0.32812,0.89062 0.2539,1.82812 -0.26563,2.83593 -0.5039,0.97657 -1.2539,1.71094 -2.23437,2.1836 -0.0195,-0.0195 -0.043,-0.0274 -0.0625,-0.0352 0.45312,-0.33594 0.85547,-0.71484 1.17187,-1.11719 -0.59375,0.45313 -0.89844,0.6875 -1.5,1.13282"
     id="path4029" />
  <path
     style="fill:#ffffff;fill-opacity:1;fill-rule:nonzero;stroke:none"
     d="m 285.00181,354.69556 c 0.35156,-0.3125 0.32422,-1.42968 0.0234,-2.11718 -0.40234,-0.91016 -1.08203,-1.48828 -2.05859,-1.7461 -0.86719,-0.23047 -2.52734,-0.27343 -2.91406,0.11328 -0.27344,0.27344 -0.17188,1.41797 0.0898,2.08985 0.32813,0.84375 0.98438,1.42578 1.98438,1.72656 0.92187,0.27734 2.42187,0.33594 2.875,-0.0664 m -1.64063,1.67579 c -0.875,0.20703 -1.70312,0.10156 -2.46484,-0.30079 -0.7461,-0.40625 -1.25,-0.98828 -1.53906,-1.74609 -0.29688,-0.78125 -0.30469,-1.61719 -0.043,-2.49219 0.26172,-0.86328 0.71484,-1.58203 1.3789,-2.1914 0.0234,0.008 0.0391,0.008 0.0586,0.0156 -0.26172,0.3086 -0.58985,0.98047 -0.58985,0.98047 0.0312,0.0234 1.32032,-1.03125 1.76953,-1.27344 0.60157,-0.3164 1.57032,-0.19922 2.35938,0.17969 0.75,0.36328 1.29297,0.91016 1.62109,1.625 0.39844,0.86719 0.3711,1.82422 -0.0781,2.86328 -0.4375,1.01563 -1.13281,1.79688 -2.08203,2.33985 -0.0195,-0.008 -0.0274,-0.0156 -0.0508,-0.0352 0.42968,-0.37109 0.78515,-0.77344 1.07812,-1.19531 -0.55859,0.48828 -0.84375,0.73828 -1.41797,1.23047"
     id="path4031" />
  <path
     style="fill:#ffffff;fill-opacity:1;fill-rule:nonzero;stroke:none"
     d="m 287.9354,354.32447 c -0.0195,0 -0.0312,0.008 -0.0547,0.0156 0.008,-0.1211 0.0391,-0.53125 0.0391,-0.53125 -0.008,0 -0.33594,0.25781 -0.71485,0.59375 -0.0234,-0.008 -0.0351,-0.0195 -0.0547,-0.0274 0.23047,-0.3789 0.67969,-0.79687 0.77344,-1.05859 0.22656,-0.59766 -0.16797,-1.80469 -0.46484,-2.42969 -0.19531,-0.41406 -0.45703,-0.80078 -0.79297,-1.08594 -0.32813,-0.27343 -1.04297,-0.72265 -1.05859,-0.84375 -0.0352,-0.23828 0.78515,-1.53515 0.82421,-1.55468 0.10547,-0.0508 0.92188,0.73046 1.26172,1.42578 0.58203,1.22265 0.51563,4.22265 0.51563,4.22265 0.0351,0.0195 1.04297,-0.85937 1.6289,-1.15234 0.71485,-0.35156 1.97657,-0.49609 1.99219,-0.48047 0.004,0.0156 -0.30078,1.01563 -0.58203,1.1875 -0.24609,0.13672 -1.39062,0.15234 -2.25391,0.56641 -0.3164,0.14453 -0.78906,0.32812 -0.91015,0.50781 -0.043,0.0664 -0.0742,0.35937 -0.14844,0.64453"
     id="path4033" />
  <path
     style="fill:#ffffff;fill-opacity:1;fill-rule:nonzero;stroke:none"
     d="m 99.326029,56.109628 -2.11719,1.77343 c -2.26953,1.90625 -3.667971,4.58594 -3.925781,7.54297 -0.25782,2.95703 0.65234,5.84375 2.585931,8.15625 l 56.152351,65.187502 1.83984,-1.48437 c 4.625,-3.74219 9.47656,-7.16406 14.4375,-10.17578 l 2.39844,-1.45313 -55.71484,-68.171872 c -3.77344,-4.51953 -11.1211,-5.17578 -15.656251,-1.375"
     id="path4035" />
  <path
     style="fill:none;stroke:#d91c97;stroke-width:2.12100005;stroke-linecap:butt;stroke-linejoin:miter;stroke-miterlimit:10;stroke-opacity:1"
     d="m 99.326029,56.109628 -2.11719,1.77343 c -2.26953,1.90625 -3.667971,4.58594 -3.925781,7.54297 -0.25782,2.95703 0.65234,5.84375 2.585931,8.15625 l 56.152351,65.187502 1.83984,-1.48437 c 4.625,-3.74219 9.47656,-7.16406 14.4375,-10.17578 l 2.39844,-1.45313 -55.71484,-68.171872 c -3.77344,-4.51953 -11.1211,-5.17578 -15.656251,-1.375 z m 0,0"
     id="path4037" />
  <path
     style="fill:#ffffff;fill-opacity:1;fill-rule:nonzero;stroke:none"
     d="m 140.58774,337.6565 -1.89843,-2.07422 -56.566415,69.21485 c -1.16797,1.38672 -1.72266,3.16015 -1.57031,4.98437 0.16406,1.8086 1.01953,3.46094 2.42187,4.63672 1.23047,1.03906 2.789073,1.60547 4.402353,1.60547 2.02734,0 3.9414,-0.88672 5.19922,-2.40234 l 57.433592,-66.6875 -1.73047,-1.59766 c -2.63672,-2.40625 -5.21875,-4.99219 -7.69141,-7.67969"
     id="path4039" />
  <path
     style="fill:none;stroke:#d91c97;stroke-width:2.12100005;stroke-linecap:butt;stroke-linejoin:miter;stroke-miterlimit:10;stroke-opacity:1"
     d="m 140.58774,337.6565 -1.89843,-2.07422 -56.566415,69.21485 c -1.16797,1.38672 -1.72266,3.16015 -1.57031,4.98437 0.16406,1.8086 1.01953,3.46094 2.42187,4.63672 1.23047,1.03906 2.789073,1.60547 4.402353,1.60547 2.02734,0 3.9414,-0.88672 5.19922,-2.40234 l 57.433592,-66.6875 -1.73047,-1.59766 c -2.63672,-2.40625 -5.21875,-4.99219 -7.69141,-7.67969 z m 0,0"
     id="path4041" />
  <path
     style="fill:#ffffff;fill-opacity:1;fill-rule:nonzero;stroke:none"
     d="m 381.79087,56.109628 2.11719,1.77343 c 2.27343,1.90625 3.66797,4.58594 3.92578,7.54297 0.25781,2.95703 -0.65235,5.84375 -2.58985,8.15625 l -56.14843,65.187502 -1.83985,-1.48437 c -4.62109,-3.74219 -9.47656,-7.16406 -14.4375,-10.17578 l -2.39843,-1.45313 55.71484,-68.171872 c 3.77344,-4.51953 11.12109,-5.17578 15.65625,-1.375"
     id="path4043" />
  <path
     style="fill:none;stroke:#d91c97;stroke-width:2.12100005;stroke-linecap:butt;stroke-linejoin:miter;stroke-miterlimit:10;stroke-opacity:1"
     d="m 381.79087,56.109628 2.11719,1.77343 c 2.27343,1.90625 3.66797,4.58594 3.92578,7.54297 0.25781,2.95703 -0.65235,5.84375 -2.58985,8.15625 l -56.14843,65.187502 -1.83985,-1.48437 c -4.62109,-3.74219 -9.47656,-7.16406 -14.4375,-10.17578 l -2.39843,-1.45313 55.71484,-68.171872 c 3.77344,-4.51953 11.12109,-5.17578 15.65625,-1.375 z m 0,0"
     id="path4045" />
  <path
     style="fill:#ffffff;fill-opacity:1;fill-rule:nonzero;stroke:none"
     d="m 340.52915,337.6565 1.89844,-2.07422 56.5664,69.21485 c 1.17188,1.38672 1.72266,3.16015 1.57032,4.98437 -0.16407,1.8086 -1.01953,3.46094 -2.42188,4.63672 -1.22656,1.03906 -2.78906,1.60547 -4.40234,1.60547 -2.02735,0 -3.94141,-0.88672 -5.19922,-2.40234 l -57.4375,-66.6875 1.73828,-1.59766 c 2.62891,-2.40625 5.21484,-4.99219 7.6875,-7.67969"
     id="path4047" />
  <path
     style="fill:none;stroke:#d91c97;stroke-width:2.12100005;stroke-linecap:butt;stroke-linejoin:miter;stroke-miterlimit:10;stroke-opacity:1"
     d="m 340.52915,337.6565 1.89844,-2.07422 56.5664,69.21485 c 1.17188,1.38672 1.72266,3.16015 1.57032,4.98437 -0.16407,1.8086 -1.01953,3.46094 -2.42188,4.63672 -1.22656,1.03906 -2.78906,1.60547 -4.40234,1.60547 -2.02735,0 -3.94141,-0.88672 -5.19922,-2.40234 l -57.4375,-66.6875 1.73828,-1.59766 c 2.62891,-2.40625 5.21484,-4.99219 7.6875,-7.67969 z m 0,0"
     id="path4049" />
</svg>
